<svg width="450" height="185" viewBox="0 0 450 185" fill="none" xmlns="http://www.w3.org/2000/svg">
<path d="M8.96 139.965H17.08V93.3445C17.08 83.5445 24.22 76.9645 33.6 76.9645C42.98 76.9645 48.86 83.5445 48.86 93.3445V139.965H56.98V93.3445C56.98 83.5445 64.26 76.9645 73.64 76.9645C83.02 76.9645 88.76 83.5445 88.76 93.3445V139.965H96.88V92.5045C96.88 77.8045 87.64 69.1245 74.9 69.1245C65.8 69.1245 58.1 73.7445 54.46 80.1845C50.82 73.7445 45.36 69.1245 35.7 69.1245C26.88 69.1245 20.44 73.6045 17.08 78.9245V69.9645H8.96V139.965ZM125.982 176.225L134.102 175.385V131.425L159.862 69.9645H150.762L130.042 120.785L109.322 69.9645H100.222L125.982 131.425V176.225ZM166.838 176.645L182.238 174.965V132.685C186.578 137.445 194.138 140.805 202.818 140.805C223.678 140.805 237.537 126.805 237.537 104.965C237.537 83.1245 223.678 69.1245 202.818 69.1245C193.578 69.1245 186.718 72.9045 182.238 77.2445V69.9645H166.838V176.645ZM202.118 125.965C189.938 125.965 181.958 117.005 181.958 104.965C181.958 92.9245 189.938 83.9645 202.118 83.9645C214.298 83.9645 222.418 92.9245 222.418 104.965C222.418 117.005 214.298 125.965 202.118 125.965ZM278.943 140.805C288.323 140.805 296.023 136.465 298.963 132.685V139.965H314.643V69.9645H298.963V77.2445C296.023 73.4645 288.183 69.1245 278.943 69.1245C258.923 69.1245 243.803 83.9645 243.803 104.965C243.803 125.965 258.923 140.805 278.943 140.805ZM279.503 125.965C267.883 125.965 258.923 117.845 258.923 104.965C258.923 92.0845 267.883 83.9645 279.503 83.9645C290.843 83.9645 299.523 92.0845 299.523 104.965C299.523 117.845 290.843 125.965 279.503 125.965ZM359.545 140.805C379.845 140.805 395.245 125.405 395.245 104.965H379.845C379.845 117.565 371.445 126.245 359.545 126.245C347.505 126.245 339.385 117.565 339.385 104.965C339.385 92.3645 347.505 83.6845 359.545 83.6845C365.705 83.6845 370.325 86.2045 373.825 89.9845L385.165 79.7645C378.725 73.1845 370.465 69.1245 359.545 69.1245C338.965 69.1245 323.705 84.3845 323.705 104.965C323.705 125.545 338.965 140.805 359.545 140.805ZM420.829 140.805C434.969 140.805 445.189 131.285 445.189 117.285C445.189 105.385 438.749 99.9245 431.609 97.2645C424.049 94.4645 416.209 94.3245 416.209 88.1645C416.209 85.3645 418.169 82.8445 421.809 82.8445C424.609 82.8445 426.849 84.6645 427.969 87.4645L437.489 78.0845C433.569 72.3445 428.109 69.1245 420.829 69.1245C410.189 69.1245 401.509 77.2445 401.509 88.4445C401.509 99.7845 409.069 105.245 416.069 107.205C422.929 109.165 429.789 109.725 429.789 117.565C429.789 123.165 426.149 126.245 420.829 126.245C416.209 126.245 411.589 122.745 411.589 116.865H396.889C396.889 130.165 406.409 140.805 420.829 140.805Z" fill="white"/>
<path d="M211.62 175.965H214.83L222.39 154.965H219.15L213.27 171.735H213.21L207.33 154.965H204.06L211.62 175.965ZM222.017 168.015C222.017 173.025 225.017 176.415 229.427 176.415C232.457 176.415 234.797 175.065 236.207 172.425L233.927 170.895C232.607 173.025 231.407 173.805 229.397 173.805C228.107 173.805 227.057 173.355 226.247 172.425C225.437 171.495 225.017 170.295 224.987 168.885H236.597V167.655C236.597 162.885 233.717 159.615 229.397 159.615C225.047 159.615 222.017 163.065 222.017 168.015ZM225.047 166.635C225.107 164.235 226.997 162.225 229.397 162.225C231.917 162.225 233.567 164.025 233.687 166.635H225.047ZM247.355 162.705V160.065H243.455V156.345H240.515V160.065H238.025V162.705H240.515V171.825C240.515 174.855 241.685 175.965 244.895 175.965H246.605V173.175H245.165C243.875 173.175 243.455 172.815 243.455 171.765V162.705H247.355ZM256.763 165.465C256.763 172.095 260.273 176.415 265.703 176.415C268.013 176.415 269.903 175.725 271.373 174.315C272.843 172.905 273.683 170.955 273.893 168.525L270.803 168.075C270.413 171.675 268.673 173.535 265.703 173.535C262.073 173.535 259.853 170.505 259.853 165.465C259.853 160.455 262.073 157.395 265.703 157.395C268.493 157.395 270.233 159.135 270.803 162.405L273.833 161.895C273.293 157.455 270.023 154.515 265.703 154.515C260.333 154.515 256.763 158.895 256.763 165.465ZM276.641 175.965H279.581V154.065H276.641V175.965ZM282.603 168.015C282.603 173.025 285.663 176.415 290.193 176.415C294.723 176.415 297.783 173.025 297.783 168.015C297.783 163.005 294.723 159.615 290.193 159.615C285.663 159.615 282.603 163.005 282.603 168.015ZM294.843 168.015C294.843 171.495 293.073 173.685 290.193 173.685C287.313 173.685 285.543 171.495 285.543 168.015C285.543 164.535 287.313 162.345 290.193 162.345C293.073 162.345 294.843 164.535 294.843 168.015ZM300.54 170.415C300.54 174.225 302.61 176.415 306.18 176.415C308.01 176.415 309.75 175.725 310.71 174.555H310.8V175.965H313.62V160.065H310.68V169.875C310.68 172.185 309.24 173.685 307.05 173.685C304.65 173.685 303.48 172.425 303.48 169.875V160.065H300.54V170.415ZM316.675 168.015C316.675 172.935 319.675 176.415 323.785 176.415C325.735 176.415 327.475 175.665 328.465 174.435H328.525V175.965H331.285V154.065H328.345V161.505H328.285C327.235 160.335 325.615 159.615 323.815 159.615C319.675 159.615 316.675 163.095 316.675 168.015ZM328.345 169.395C328.345 171.765 326.485 173.685 324.145 173.685C321.385 173.685 319.615 171.495 319.615 168.015C319.615 164.535 321.325 162.345 324.055 162.345C326.455 162.345 328.345 164.265 328.345 166.605V169.395ZM343.51 175.965H346.6V154.965H343.51V175.965ZM350.82 175.965H353.7V165.705C353.7 163.695 354.93 162.345 356.85 162.345C358.68 162.345 359.94 163.605 359.94 165.525V175.965H362.73V165.705C362.73 163.695 363.96 162.345 365.85 162.345C367.74 162.345 368.97 163.605 368.97 165.525V175.965H371.85V165.045C371.85 161.865 369.42 159.615 366.18 159.615C364.47 159.615 362.94 160.365 361.83 161.595H361.77C360.93 160.395 359.34 159.615 357.66 159.615C356.1 159.615 354.54 160.275 353.7 161.325H353.64V160.065H350.82V175.965ZM374.831 171.825C374.831 174.615 376.901 176.415 380.051 176.415C382.001 176.415 383.651 175.665 384.521 174.435H384.581V175.965H387.281V165.045C387.281 161.685 385.001 159.615 381.311 159.615C379.601 159.615 378.131 160.095 376.931 161.025C375.761 161.955 375.041 163.185 374.771 164.745L377.621 165.345C378.011 163.335 379.361 162.195 381.311 162.195C383.111 162.195 384.221 163.035 384.221 164.325C384.221 165.495 383.321 166.065 380.441 166.785C376.391 167.745 374.831 169.155 374.831 171.825ZM384.371 170.595C384.371 172.425 382.721 173.775 380.411 173.775C378.641 173.775 377.711 172.995 377.711 171.645C377.711 170.445 378.671 169.755 381.191 169.125C383.111 168.615 384.041 168.135 384.311 167.445H384.371V170.595ZM391.321 178.995C392.491 181.605 394.981 183.165 398.011 183.165C402.091 183.165 404.791 180.405 404.791 176.325V160.065H401.911V161.595H401.851C400.801 160.365 399.121 159.645 397.321 159.645C393.181 159.645 390.181 163.125 390.181 168.015C390.181 172.935 393.121 176.415 397.291 176.415C399.301 176.415 400.981 175.665 401.851 174.435H401.911V176.175C401.911 178.845 400.441 180.495 398.011 180.495C396.001 180.495 394.861 179.715 393.811 177.585L391.321 178.995ZM401.851 169.395C401.851 171.765 399.991 173.685 397.651 173.685C394.891 173.685 393.121 171.495 393.121 168.015C393.121 164.565 394.891 162.375 397.561 162.375C399.961 162.375 401.851 164.295 401.851 166.665V169.395ZM408.301 175.965H411.241V160.065H408.301V175.965ZM408.151 157.305H411.361V154.215H408.151V157.305ZM414.863 175.965H417.803V166.155C417.803 163.875 419.303 162.345 421.583 162.345C423.863 162.345 425.213 163.785 425.213 166.155V175.965H428.153V165.705C428.153 161.985 425.783 159.615 422.153 159.615C420.473 159.615 418.703 160.365 417.743 161.475H417.683V160.065H414.863V175.965ZM432.19 178.995C433.36 181.605 435.85 183.165 438.88 183.165C442.96 183.165 445.66 180.405 445.66 176.325V160.065H442.78V161.595H442.72C441.67 160.365 439.99 159.645 438.19 159.645C434.05 159.645 431.05 163.125 431.05 168.015C431.05 172.935 433.99 176.415 438.16 176.415C440.17 176.415 441.85 175.665 442.72 174.435H442.78V176.175C442.78 178.845 441.31 180.495 438.88 180.495C436.87 180.495 435.73 179.715 434.68 177.585L432.19 178.995ZM442.72 169.395C442.72 171.765 440.86 173.685 438.52 173.685C435.76 173.685 433.99 171.495 433.99 168.015C433.99 164.565 435.76 162.375 438.43 162.375C440.83 162.375 442.72 164.295 442.72 166.665V169.395Z" fill="#F7F7F7"/>
</svg>
