<svg width="450" height="185" viewBox="0 0 450 185" fill="none" xmlns="http://www.w3.org/2000/svg">
<path d="M8.96 139.987H17.08V93.367C17.08 83.567 24.22 76.987 33.6 76.987C42.98 76.987 48.86 83.567 48.86 93.367V139.987H56.98V93.367C56.98 83.567 64.26 76.987 73.64 76.987C83.02 76.987 88.76 83.567 88.76 93.367V139.987H96.88V92.527C96.88 77.827 87.64 69.147 74.9 69.147C65.8 69.147 58.1 73.767 54.46 80.207C50.82 73.767 45.36 69.147 35.7 69.147C26.88 69.147 20.44 73.627 17.08 78.947V69.987H8.96V139.987ZM125.982 176.247L134.102 175.407V131.447L159.862 69.987H150.762L130.042 120.807L109.322 69.987H100.222L125.982 131.447V176.247ZM166.838 176.667L182.238 174.987V132.707C186.578 137.467 194.138 140.827 202.818 140.827C223.678 140.827 237.537 126.827 237.537 104.987C237.537 83.147 223.678 69.147 202.818 69.147C193.578 69.147 186.718 72.927 182.238 77.267V69.987H166.838V176.667ZM202.118 125.987C189.938 125.987 181.958 117.027 181.958 104.987C181.958 92.947 189.938 83.987 202.118 83.987C214.298 83.987 222.418 92.947 222.418 104.987C222.418 117.027 214.298 125.987 202.118 125.987ZM278.943 140.827C288.323 140.827 296.023 136.487 298.963 132.707V139.987H314.643V69.987H298.963V77.267C296.023 73.487 288.183 69.147 278.943 69.147C258.923 69.147 243.803 83.987 243.803 104.987C243.803 125.987 258.923 140.827 278.943 140.827ZM279.503 125.987C267.883 125.987 258.923 117.867 258.923 104.987C258.923 92.107 267.883 83.987 279.503 83.987C290.843 83.987 299.523 92.107 299.523 104.987C299.523 117.867 290.843 125.987 279.503 125.987ZM359.545 140.827C379.845 140.827 395.245 125.427 395.245 104.987H379.845C379.845 117.587 371.445 126.267 359.545 126.267C347.505 126.267 339.385 117.587 339.385 104.987C339.385 92.387 347.505 83.707 359.545 83.707C365.705 83.707 370.325 86.227 373.825 90.007L385.165 79.787C378.725 73.207 370.465 69.147 359.545 69.147C338.965 69.147 323.705 84.407 323.705 104.987C323.705 125.567 338.965 140.827 359.545 140.827ZM420.829 140.827C434.969 140.827 445.189 131.307 445.189 117.307C445.189 105.407 438.749 99.947 431.609 97.287C424.049 94.487 416.209 94.347 416.209 88.187C416.209 85.387 418.169 82.867 421.809 82.867C424.609 82.867 426.849 84.687 427.969 87.487L437.489 78.107C433.569 72.367 428.109 69.147 420.829 69.147C410.189 69.147 401.509 77.267 401.509 88.467C401.509 99.807 409.069 105.267 416.069 107.227C422.929 109.187 429.789 109.747 429.789 117.587C429.789 123.187 426.149 126.267 420.829 126.267C416.209 126.267 411.589 122.767 411.589 116.887H396.889C396.889 130.187 406.409 140.827 420.829 140.827Z" fill="black" fill-opacity="0.87"/>
<path d="M206.62 175.987H209.83L217.39 154.987H214.15L208.27 171.757H208.21L202.33 154.987H199.06L206.62 175.987ZM217.017 168.037C217.017 173.047 220.017 176.437 224.427 176.437C227.457 176.437 229.797 175.087 231.207 172.447L228.927 170.917C227.607 173.047 226.407 173.827 224.397 173.827C223.107 173.827 222.057 173.377 221.247 172.447C220.437 171.517 220.017 170.317 219.987 168.907H231.597V167.677C231.597 162.907 228.717 159.637 224.397 159.637C220.047 159.637 217.017 163.087 217.017 168.037ZM220.047 166.657C220.107 164.257 221.997 162.247 224.397 162.247C226.917 162.247 228.567 164.047 228.687 166.657H220.047ZM242.355 162.727V160.087H238.455V156.367H235.515V160.087H233.025V162.727H235.515V171.847C235.515 174.877 236.685 175.987 239.895 175.987H241.605V173.197H240.165C238.875 173.197 238.455 172.837 238.455 171.787V162.727H242.355ZM251.763 165.487C251.763 172.117 255.273 176.437 260.703 176.437C263.013 176.437 264.903 175.747 266.373 174.337C267.843 172.927 268.683 170.977 268.893 168.547L265.803 168.097C265.413 171.697 263.673 173.557 260.703 173.557C257.073 173.557 254.853 170.527 254.853 165.487C254.853 160.477 257.073 157.417 260.703 157.417C263.493 157.417 265.233 159.157 265.803 162.427L268.833 161.917C268.293 157.477 265.023 154.537 260.703 154.537C255.333 154.537 251.763 158.917 251.763 165.487ZM271.641 175.987H274.581V154.087H271.641V175.987ZM277.603 168.037C277.603 173.047 280.663 176.437 285.193 176.437C289.723 176.437 292.783 173.047 292.783 168.037C292.783 163.027 289.723 159.637 285.193 159.637C280.663 159.637 277.603 163.027 277.603 168.037ZM289.843 168.037C289.843 171.517 288.073 173.707 285.193 173.707C282.313 173.707 280.543 171.517 280.543 168.037C280.543 164.557 282.313 162.367 285.193 162.367C288.073 162.367 289.843 164.557 289.843 168.037ZM295.54 170.437C295.54 174.247 297.61 176.437 301.18 176.437C303.01 176.437 304.75 175.747 305.71 174.577H305.8V175.987H308.62V160.087H305.68V169.897C305.68 172.207 304.24 173.707 302.05 173.707C299.65 173.707 298.48 172.447 298.48 169.897V160.087H295.54V170.437ZM311.675 168.037C311.675 172.957 314.675 176.437 318.785 176.437C320.735 176.437 322.475 175.687 323.465 174.457H323.525V175.987H326.285V154.087H323.345V161.527H323.285C322.235 160.357 320.615 159.637 318.815 159.637C314.675 159.637 311.675 163.117 311.675 168.037ZM323.345 169.417C323.345 171.787 321.485 173.707 319.145 173.707C316.385 173.707 314.615 171.517 314.615 168.037C314.615 164.557 316.325 162.367 319.055 162.367C321.455 162.367 323.345 164.287 323.345 166.627V169.417ZM338.51 175.987H341.6V154.987H338.51V175.987ZM345.82 175.987H348.7V165.727C348.7 163.717 349.93 162.367 351.85 162.367C353.68 162.367 354.94 163.627 354.94 165.547V175.987H357.73V165.727C357.73 163.717 358.96 162.367 360.85 162.367C362.74 162.367 363.97 163.627 363.97 165.547V175.987H366.85V165.067C366.85 161.887 364.42 159.637 361.18 159.637C359.47 159.637 357.94 160.387 356.83 161.617H356.77C355.93 160.417 354.34 159.637 352.66 159.637C351.1 159.637 349.54 160.297 348.7 161.347H348.64V160.087H345.82V175.987ZM369.831 171.847C369.831 174.637 371.901 176.437 375.051 176.437C377.001 176.437 378.651 175.687 379.521 174.457H379.581V175.987H382.281V165.067C382.281 161.707 380.001 159.637 376.311 159.637C374.601 159.637 373.131 160.117 371.931 161.047C370.761 161.977 370.041 163.207 369.771 164.767L372.621 165.367C373.011 163.357 374.361 162.217 376.311 162.217C378.111 162.217 379.221 163.057 379.221 164.347C379.221 165.517 378.321 166.087 375.441 166.807C371.391 167.767 369.831 169.177 369.831 171.847ZM379.371 170.617C379.371 172.447 377.721 173.797 375.411 173.797C373.641 173.797 372.711 173.017 372.711 171.667C372.711 170.467 373.671 169.777 376.191 169.147C378.111 168.637 379.041 168.157 379.311 167.467H379.371V170.617ZM386.321 179.017C387.491 181.627 389.981 183.187 393.011 183.187C397.091 183.187 399.791 180.427 399.791 176.347V160.087H396.911V161.617H396.851C395.801 160.387 394.121 159.667 392.321 159.667C388.181 159.667 385.181 163.147 385.181 168.037C385.181 172.957 388.121 176.437 392.291 176.437C394.301 176.437 395.981 175.687 396.851 174.457H396.911V176.197C396.911 178.867 395.441 180.517 393.011 180.517C391.001 180.517 389.861 179.737 388.811 177.607L386.321 179.017ZM396.851 169.417C396.851 171.787 394.991 173.707 392.651 173.707C389.891 173.707 388.121 171.517 388.121 168.037C388.121 164.587 389.891 162.397 392.561 162.397C394.961 162.397 396.851 164.317 396.851 166.687V169.417ZM403.301 175.987H406.241V160.087H403.301V175.987ZM403.151 157.327H406.361V154.237H403.151V157.327ZM409.863 175.987H412.803V166.177C412.803 163.897 414.303 162.367 416.583 162.367C418.863 162.367 420.213 163.807 420.213 166.177V175.987H423.153V165.727C423.153 162.007 420.783 159.637 417.153 159.637C415.473 159.637 413.703 160.387 412.743 161.497H412.683V160.087H409.863V175.987ZM427.19 179.017C428.36 181.627 430.85 183.187 433.88 183.187C437.96 183.187 440.66 180.427 440.66 176.347V160.087H437.78V161.617H437.72C436.67 160.387 434.99 159.667 433.19 159.667C429.05 159.667 426.05 163.147 426.05 168.037C426.05 172.957 428.99 176.437 433.16 176.437C435.17 176.437 436.85 175.687 437.72 174.457H437.78V176.197C437.78 178.867 436.31 180.517 433.88 180.517C431.87 180.517 430.73 179.737 429.68 177.607L427.19 179.017ZM437.72 169.417C437.72 171.787 435.86 173.707 433.52 173.707C430.76 173.707 428.99 171.517 428.99 168.037C428.99 164.587 430.76 162.397 433.43 162.397C435.83 162.397 437.72 164.317 437.72 166.687V169.417Z" fill="black" fill-opacity="0.87"/>
</svg>
