<svg width="331" height="155" viewBox="0 0 331 155" fill="none" xmlns="http://www.w3.org/2000/svg">
<path d="M316.742 107.109V122.222H327.729V119.133H320.121V107.109H316.742ZM309.717 114.663C309.772 117.346 307.627 119.569 304.925 119.624C302.223 119.678 299.985 117.549 299.93 114.866C299.93 114.799 299.93 114.731 299.93 114.663C299.84 112.044 301.908 109.851 304.547 109.762C304.64 109.762 304.734 109.762 304.823 109.762C307.432 109.669 309.623 111.689 309.721 114.279C309.725 114.406 309.721 114.532 309.721 114.659M313.049 114.659C313.185 110.151 309.61 106.387 305.07 106.256C300.53 106.12 296.738 109.669 296.606 114.177C296.474 118.686 300.045 122.45 304.585 122.581C304.666 122.581 304.747 122.581 304.827 122.581C309.01 122.932 312.683 119.847 313.036 115.694C313.066 115.348 313.07 115.001 313.053 114.655M290.458 114.655C290.513 117.338 288.368 119.56 285.666 119.615C282.964 119.67 280.726 117.541 280.671 114.858C280.671 114.79 280.671 114.723 280.671 114.655C280.615 111.972 282.76 109.75 285.462 109.695C288.164 109.64 290.402 111.769 290.458 114.452C290.458 114.52 290.458 114.587 290.458 114.655ZM293.785 114.655C293.921 110.147 290.347 106.382 285.807 106.251C281.266 106.116 277.475 109.665 277.343 114.173C277.207 118.681 280.781 122.446 285.322 122.577C285.402 122.577 285.483 122.577 285.564 122.577C289.747 122.923 293.423 119.839 293.772 115.686C293.802 115.344 293.806 114.997 293.789 114.651M273.649 122.23V107.117H270.301V113.163H263.492V107.117H260.092V122.23H263.488V116.239H270.296V122.23H273.649ZM254.795 118.039C253.761 118.952 252.433 119.463 251.05 119.484C248.599 119.67 246.459 117.849 246.267 115.415C246.25 115.204 246.25 114.989 246.267 114.777C246.105 112.259 248.029 110.083 250.565 109.923C250.727 109.914 250.888 109.91 251.05 109.919C252.322 109.881 253.561 110.328 254.509 111.169L256.641 109.078C255.165 107.586 253.148 106.746 251.041 106.746C246.782 106.517 243.144 109.758 242.914 113.983C242.901 114.241 242.897 114.499 242.914 114.752C242.616 118.795 245.676 122.315 249.748 122.611C250.182 122.64 250.616 122.636 251.046 122.594C253.22 122.666 255.326 121.863 256.897 120.367L254.799 118.035L254.795 118.039ZM239.527 108.883C238.127 107.24 236.012 106.374 233.85 106.551C230.718 106.551 227.85 108.153 227.816 111.152C227.774 114.714 230.646 115.517 233.867 115.817C235.935 115.99 236.952 116.577 236.931 117.849C236.931 118.931 235.689 119.64 233.884 119.64C232.093 119.645 230.387 118.863 229.229 117.503L227.208 119.598C228.744 121.698 231.255 122.873 233.863 122.708C237.144 122.682 240.28 121.212 240.28 117.849C240.28 114.486 237.429 113.206 234.429 112.948C232.472 112.775 231.144 112.521 231.144 111.131C231.144 110.096 232.361 109.471 233.863 109.471C235.161 109.437 236.42 109.893 237.386 110.755L239.523 108.888L239.527 108.883ZM217.591 108.883C216.191 107.24 214.076 106.374 211.915 106.551C208.783 106.551 205.915 108.153 205.881 111.152C205.838 114.714 208.71 115.517 211.932 115.817C214 115.99 215.017 116.577 214.995 117.849C214.995 118.931 213.753 119.64 211.949 119.64C210.157 119.645 208.451 118.863 207.293 117.503L205.272 119.598C206.808 121.698 209.319 122.873 211.927 122.708C215.208 122.682 218.34 121.212 218.34 117.849C218.34 114.486 215.493 113.206 212.489 112.948C210.532 112.775 209.208 112.521 209.208 111.131C209.208 110.096 210.425 109.471 211.927 109.471C213.225 109.437 214.485 109.898 215.451 110.755L217.591 108.888V108.883ZM202.196 108.883C200.796 107.24 198.681 106.374 196.519 106.551C193.387 106.551 190.519 108.153 190.485 111.152C190.443 114.714 193.315 115.517 196.536 115.817C198.604 115.99 199.621 116.577 199.6 117.849C199.6 118.931 198.357 119.64 196.553 119.64C194.762 119.645 193.055 118.863 191.898 117.503L189.877 119.598C191.413 121.698 193.924 122.873 196.532 122.708C199.813 122.682 202.945 121.212 202.945 117.849C202.945 114.486 200.098 113.206 197.094 112.948C195.136 112.775 193.813 112.521 193.813 111.131C193.813 110.096 195.03 109.471 196.532 109.471C197.83 109.437 199.089 109.898 200.055 110.755L202.191 108.888L202.196 108.883ZM187.213 119.095H178.949V116.053H186.451V113.096H178.949V110.181H186.907V107.096H175.609V122.209H187.2L187.213 119.095ZM160.175 107.092H157.265V122.205H160.711V117.498L160.584 112.53L168.15 122.205H171.06V107.092H167.647V112.166L167.865 116.911L160.175 107.088V107.092ZM152.699 107.092H149.329V122.205H152.699V107.092ZM145.061 108.879C143.661 107.236 141.546 106.365 139.384 106.547C136.252 106.547 133.384 108.148 133.363 111.148C133.316 114.71 136.189 115.513 139.41 115.813C141.478 115.986 142.495 116.573 142.478 117.845C142.478 118.926 141.235 119.636 139.431 119.636C137.635 119.64 135.929 118.859 134.772 117.498L132.75 119.594C134.287 121.694 136.797 122.864 139.406 122.704C142.691 122.678 145.822 121.208 145.822 117.845C145.822 114.482 142.976 113.202 139.971 112.944C138.014 112.771 136.686 112.517 136.686 111.127C136.686 110.092 137.908 109.467 139.406 109.467C140.703 109.433 141.963 109.889 142.929 110.751L145.061 108.883V108.879ZM126.206 107.109V115.546C126.206 117.811 125.38 119.395 123.074 119.539C121.125 119.801 119.334 118.445 119.07 116.505C119.027 116.184 119.027 115.863 119.07 115.542V107.096H115.7V115.542C115.423 119.159 118.155 122.311 121.793 122.581C122.21 122.611 122.631 122.602 123.048 122.556C126.533 122.695 129.474 120.008 129.614 116.548C129.627 116.21 129.614 115.876 129.576 115.542V107.096L126.206 107.105V107.109ZM98.9341 107.088V122.201H106.568C109.615 122.201 111.661 121.098 112.117 118.656C112.517 116.805 111.491 114.938 109.704 114.275C110.959 113.763 111.768 112.534 111.725 111.186C111.725 108.376 109.33 107.084 106.44 107.084H98.9341V107.088ZM102.262 109.999H106.44C107.734 109.999 108.381 110.641 108.381 111.537C108.381 112.433 107.734 112.961 106.402 112.961H102.27L102.262 110.003V109.999ZM102.262 115.775H106.393C107.9 115.775 108.679 116.489 108.679 117.545C108.679 118.601 107.959 119.273 106.436 119.273H102.257V115.775H102.262Z" fill="#252525"/>
<path d="M47.4458 77.8337C47.4883 82.9629 44.8118 87.733 40.4034 90.399C35.7056 93.5804 29.2845 95.1733 21.1315 95.1733C17.0039 95.2113 12.8848 94.7888 8.85087 93.9184C5.81689 93.2847 2.851 92.3552 0 91.1384V77.8759H1.48933C2.29782 78.4421 3.23823 79.0632 4.31054 79.7349C5.75732 80.5884 7.27218 81.3151 8.84662 81.9066C10.7062 82.6502 12.6253 83.2417 14.5784 83.6811C16.8294 84.1881 19.1315 84.4332 21.4378 84.4205C23.8463 84.5473 26.259 84.1881 28.5228 83.36C29.8802 82.908 30.7993 81.6573 30.8249 80.2377C30.9057 79.1688 30.3823 78.1463 29.4717 77.576C27.8505 76.7901 26.1143 76.2493 24.3271 75.9831C23.1186 75.7169 21.4889 75.4254 19.4294 75.1085C17.54 74.8297 15.6635 74.4452 13.8167 73.9678C9.91468 73.1692 6.34454 71.2299 3.56588 68.3949C1.30635 65.7754 0.114891 62.408 0.229782 58.9604C0.2851 54.0171 2.90206 49.4498 7.16155 46.8852C11.7785 43.6742 18.089 42.0687 26.0973 42.0687C29.7611 42.056 33.4163 42.4362 36.9992 43.2094C39.7864 43.7587 42.514 44.5741 45.148 45.6431V58.3478H43.748C41.2034 56.6451 38.4332 55.2973 35.5184 54.3509C32.5014 53.3369 29.3398 52.8172 26.1569 52.8087C23.9059 52.7454 21.6634 53.1087 19.5485 53.8777C17.7613 54.5959 16.8677 55.6184 16.8677 56.9324C16.8039 57.9886 17.2592 59.0069 18.089 59.666C19.8677 60.6377 21.808 61.2757 23.8165 61.5503C25.4718 61.8799 27.2547 62.1968 29.1653 62.5094C31.0802 62.8263 32.995 63.2235 34.9226 63.6967C38.5481 64.4318 41.8544 66.257 44.4033 68.9188C46.4926 71.4074 47.5862 74.5719 47.4713 77.8083" fill="#252525"/>
<path d="M78.858 57.3041L88.7471 49.737L97.0193 43.4375H106.5L92.462 64.0557L115.07 94.0789H97.3257L74.4921 63.6247V107.616H58.2031V35.4395H62.569L78.8623 57.3041H78.858Z" fill="#252525"/>
<path d="M153.946 62.1671C154.069 59.4039 153.171 56.6915 151.414 54.5409C149.401 52.6819 146.695 51.7524 143.955 51.9848C141.172 51.8707 138.436 52.7242 136.219 54.4057C134.023 56.3957 132.793 59.218 132.831 62.1671H153.942H153.946ZM170.116 71.6228H132.878C132.921 75.1591 134.593 78.48 137.419 80.639C141.082 82.9586 145.397 84.0529 149.733 83.7571C153.146 83.7571 156.529 83.1403 159.72 81.9319C162.435 80.977 165.005 79.6588 167.358 78.0026H169.167V90.9439C165.809 92.3128 162.337 93.3775 158.784 94.1254C155.231 94.8141 151.614 95.1436 147.993 95.114C137.823 95.114 130.027 92.8452 124.602 88.3075C119.181 83.7698 116.47 77.3055 116.479 68.9145C116.104 61.5503 118.904 54.3804 124.176 49.1878C129.312 44.3374 136.346 41.9123 145.286 41.9038C153.533 41.9038 159.733 43.9699 163.886 48.1062C168.039 52.2425 170.116 58.1956 170.12 65.9654V71.6228H170.116Z" fill="#252525"/>
<path d="M231.05 58.1155V93.7706H214.765V68.6401C214.765 66.1895 214.706 64.1066 214.582 62.3912C214.527 60.9462 214.191 59.5224 213.591 58.2C213.076 57.1522 212.204 56.3198 211.131 55.8466C209.659 55.2889 208.085 55.0354 206.51 55.1072C204.91 55.1072 203.327 55.4326 201.859 56.0663C200.464 56.6578 199.106 57.3381 197.8 58.107V93.7622H181.498V43.4715H197.787V49.0316C200.268 47.0459 202.957 45.3347 205.808 43.9193C208.455 42.6772 211.348 42.0476 214.276 42.0856C217.37 42.0223 220.421 42.7912 223.11 44.3038C225.714 45.8333 227.803 48.0979 229.11 50.8104C232.008 48.326 235.178 46.1755 238.569 44.4052C241.339 42.9222 244.429 42.1237 247.577 42.073C252.258 41.7561 256.833 43.5517 260.033 46.9571C262.871 50.2146 264.288 54.9044 264.288 61.0223V93.7664H247.999V68.6401C247.999 66.16 247.948 64.0686 247.846 62.3659C247.803 60.9251 247.471 59.5097 246.875 58.2C246.386 57.1437 245.518 56.3071 244.437 55.8466C242.944 55.2847 241.348 55.0354 239.752 55.1072C238.399 55.1072 237.054 55.3396 235.782 55.8001C234.135 56.4297 232.552 57.2029 231.042 58.107" fill="#252525"/>
<path d="M309.993 80.6309V70.1697C307.802 70.3429 305.432 70.588 302.883 70.9049C300.917 71.0992 298.968 71.4668 297.066 71.9991C295.645 72.3836 294.36 73.1483 293.351 74.2131C292.453 75.282 291.994 76.6467 292.058 78.0367C292.036 78.8944 292.126 79.7521 292.326 80.5844C292.572 81.3323 293.045 81.9914 293.679 82.4646C294.398 83.0814 295.24 83.5293 296.155 83.7828C297.632 84.125 299.143 84.2687 300.657 84.2095C302.347 84.1926 304.019 83.8588 305.585 83.2251C307.185 82.6082 308.67 81.7336 309.981 80.6309M309.981 88.4388C309.117 89.0979 308.023 89.888 306.738 90.8175C305.585 91.654 304.359 92.3892 303.074 93.0103C301.487 93.7243 299.828 94.2567 298.121 94.6031C296.266 94.958 294.377 95.1313 292.487 95.1186C288.032 95.2496 283.705 93.6567 280.407 90.6738C277.19 87.7881 275.411 83.6434 275.543 79.338C275.403 76.1524 276.271 73.0047 278.024 70.3302C279.815 67.8882 282.245 65.9827 285.053 64.8208C288.619 63.3293 292.381 62.3618 296.228 61.952C300.679 61.39 305.291 60.9718 310.066 60.6971V60.431C310.261 57.9847 308.887 55.682 306.636 54.6765C303.419 53.4554 299.977 52.9146 296.538 53.0878C293.628 53.1259 290.734 53.5991 287.968 54.499C284.939 55.437 282.756 56.1637 281.432 56.6707H279.943V44.5194C281.658 44.0758 284.449 43.5435 288.309 42.9308C292.151 42.3182 296.036 42.0098 299.925 42.0098C309.155 42.0098 315.827 43.4209 319.934 46.2475C324.044 49.074 326.095 53.4977 326.091 59.5268V93.7708H309.976L309.989 88.4388H309.981Z" fill="#252525"/>
<path d="M90.8917 38.8495C90.8917 43.9829 86.7003 48.1403 81.5345 48.1403C76.3686 48.1403 72.1772 43.9787 72.1772 38.8495C72.1772 33.7203 76.3686 29.5586 81.5345 29.5586C86.7003 29.5586 90.8917 33.7118 90.8917 38.841V38.8495Z" fill="#252525"/>
</svg>
